<svg xmlns="http://www.w3.org/2000/svg" width="700" height="80" viewBox="0 0 700 80">
    <defs>
        <radialGradient id="circularHolo3" cx="50%" cy="50%" r="50%">
            <stop offset="0%" stop-color="#ffffff">
                <animate attributeName="stop-color" 
                         values="#ffffff;#ff0080;#0080ff;#ffffff" 
                         dur="4s" 
                         repeatCount="indefinite"/>
            </stop>
            <stop offset="33%" stop-color="#ff0000">
                <animate attributeName="stop-color" 
                         values="#ff0000;#ffff00;#0000ff;#ff0000" 
                         dur="5s" 
                         repeatCount="indefinite"/>
            </stop>
            <stop offset="66%" stop-color="#0000ff">
                <animate attributeName="stop-color" 
                         values="#0000ff;#00ffff;#ff0080;#0000ff" 
                         dur="3s" 
                         repeatCount="indefinite"/>
            </stop>
            <stop offset="100%" stop-color="#000000"/>
        </radialGradient>
    </defs>
    
    <!-- Glow effect base layers -->
    <rect x="0" y="36" width="700" height="8" fill="url(#circularHolo3)" opacity="0.3"/>
    <rect x="0" y="37" width="700" height="6" fill="url(#circularHolo3)" opacity="0.5"/>
    
    <!-- Main circuit board line -->
    <rect x="0" y="38" width="700" height="4" fill="url(#circularHolo3)"/>
    
    <!-- Circuit nodes and connections with glow duplicate layers -->
    <g stroke="url(#circularHolo3)" stroke-width="4" fill="none" opacity="0.3">
        <line x1="100" y1="40" x2="100" y2="20"/>
        <line x1="90" y1="20" x2="110" y2="20"/>
        <line x1="200" y1="40" x2="200" y2="60"/>
        <line x1="190" y1="60" x2="210" y2="60"/>
        <line x1="300" y1="40" x2="320" y2="25"/>
        <line x1="320" y1="25" x2="340" y2="40"/>
        <line x1="400" y1="40" x2="420" y2="55"/>
        <line x1="420" y1="55" x2="440" y2="40"/>
        <line x1="500" y1="40" x2="500" y2="20"/>
        <line x1="490" y1="20" x2="510" y2="20"/>
        <line x1="600" y1="40" x2="600" y2="60"/>
        <line x1="590" y1="60" x2="610" y2="60"/>
    </g>
    
    <!-- Main circuit connections -->
    <g stroke="url(#circularHolo3)" stroke-width="2" fill="none">
        <line x1="100" y1="40" x2="100" y2="20"/>
        <line x1="90" y1="20" x2="110" y2="20"/>
        <line x1="200" y1="40" x2="200" y2="60"/>
        <line x1="190" y1="60" x2="210" y2="60"/>
        <line x1="300" y1="40" x2="320" y2="25"/>
        <line x1="320" y1="25" x2="340" y2="40"/>
        <line x1="400" y1="40" x2="420" y2="55"/>
        <line x1="420" y1="55" x2="440" y2="40"/>
        <line x1="500" y1="40" x2="500" y2="20"/>
        <line x1="490" y1="20" x2="510" y2="20"/>
        <line x1="600" y1="40" x2="600" y2="60"/>
        <line x1="590" y1="60" x2="610" y2="60"/>
    </g>
    
    <!-- Circuit nodes -->
    <circle cx="100" cy="40" r="6" fill="url(#circularHolo3)">
        <animate attributeName="r" values="6;9;6" dur="2s" repeatCount="indefinite"/>
    </circle>
    
    <circle cx="200" cy="40" r="5" fill="url(#circularHolo3)">
        <animate attributeName="r" values="5;8;5" dur="3s" repeatCount="indefinite"/>
    </circle>
    
    <circle cx="330" cy="32" r="4" fill="url(#circularHolo3)">
        <animate attributeName="r" values="4;7;4" dur="4s" repeatCount="indefinite"/>
    </circle>
    
    <circle cx="430" cy="48" r="5" fill="url(#circularHolo3)">
        <animate attributeName="r" values="5;8;5" dur="2.5s" repeatCount="indefinite"/>
    </circle>
    
    <circle cx="500" cy="40" r="6" fill="url(#circularHolo3)">
        <animate attributeName="r" values="6;9;6" dur="3.5s" repeatCount="indefinite"/>
    </circle>
    
    <circle cx="600" cy="40" r="5" fill="url(#circularHolo3)">
        <animate attributeName="r" values="5;8;5" dur="2.8s" repeatCount="indefinite"/>
    </circle>
    
    <!-- Data pulse -->
    <circle r="3" fill="#ffffff" opacity="0.9">
        <animate attributeName="opacity" values="0.9;0.3;0.9" dur="1s" repeatCount="indefinite"/>
        <animateMotion dur="6s" repeatCount="indefinite">
            <mpath href="#dataPulsePath"/>
        </animateMotion>
    </circle>
    <path id="dataPulsePath" d="M0,40 L700,40" opacity="0"/>
</svg>