<svg xmlns="http://www.w3.org/2000/svg" width="64" height="64" viewBox="0 0 64 64"
     style="vertical-align: middle;">
    <defs>
        <linearGradient id="docVibrantGrad" x1="0%" y1="0%" x2="100%" y2="100%">
            <stop offset="0%" style="stop-color:#FF0A54" />
            <stop offset="25%" style="stop-color:#FF477E" />
            <stop offset="50%" style="stop-color:#0AFFEF" />
            <stop offset="75%" style="stop-color:#845EF7" />
            <stop offset="100%" style="stop-color:#B5179E" />
        </linearGradient>
        <filter id="docGlow">
            <feGaussianBlur in="SourceGraphic" stdDeviation="0.5" result="blur" />
            <feMerge>
                <feMergeNode in="blur" />
                <feMergeNode in="SourceGraphic" />
            </feMerge>
        </filter>
    </defs>
    <!-- Main document outline with enhanced visibility -->
    <path fill="url(#docVibrantGrad)" stroke="url(#docVibrantGrad)" stroke-width="1"
          filter="url(#docGlow)"
          d="M51.12,15.71l-8.83-8.83C41.73,6.31,40.97,6,40.17,6H15c-1.65,0-3,1.35-3,3v46c0,1.65,1.35,3,3,3h34c1.65,0,3-1.35,3-3V17.83C52,17.03,51.69,16.27,51.12,15.71z M42,9.41L48.59,16H43c-0.55,0-1-0.45-1-1V9.41z M50,55c0,0.55-0.45,1-1,1H15c-0.55,0-1-0.45-1-1V9c0-0.55,0.45-1,1-1h25v7c0,1.65,1.35,3,3,3h7V55z" />
    <!-- Text lines with enhanced thickness -->
    <rect x="23" y="31" width="18" height="3" rx="1" fill="url(#docVibrantGrad)"
          opacity="0.9" />
    <rect x="23" y="36" width="18" height="3" rx="1" fill="url(#docVibrantGrad)"
          opacity="0.8" />
    <rect x="23" y="41" width="18" height="3" rx="1" fill="url(#docVibrantGrad)"
          opacity="0.7" />
    <rect x="23" y="46" width="10" height="3" rx="1" fill="url(#docVibrantGrad)"
          opacity="0.6" />
</svg>