<svg xmlns="http://www.w3.org/2000/svg" x="0px" y="0px" width="100" height="100"
     viewBox="0 0 64 64">
    <linearGradient id="vibrantGradient1" x1="0%" y1="0%" x2="100%" y2="100%">
        <stop offset="0%" style="stop-color:#FF0A54" />
        <stop offset="25%" style="stop-color:#FF477E" />
        <stop offset="50%" style="stop-color:#0AFFEF" />
        <stop offset="75%" style="stop-color:#845EF7" />
        <stop offset="100%" style="stop-color:#B5179E" />
    </linearGradient>
    <linearGradient id="vibrantGradient2" x1="0%" y1="0%" x2="100%" y2="100%">
        <stop offset="0%" style="stop-color:#FF0A54" />
        <stop offset="25%" style="stop-color:#FF477E" />
        <stop offset="50%" style="stop-color:#0AFFEF" />
        <stop offset="75%" style="stop-color:#845EF7" />
        <stop offset="100%" style="stop-color:#B5179E" />
    </linearGradient>
    <linearGradient id="vibrantGradient3" x1="0%" y1="0%" x2="100%" y2="100%">
        <stop offset="0%" style="stop-color:#FF0A54" />
        <stop offset="25%" style="stop-color:#FF477E" />
        <stop offset="50%" style="stop-color:#0AFFEF" />
        <stop offset="75%" style="stop-color:#845EF7" />
        <stop offset="100%" style="stop-color:#B5179E" />
    </linearGradient>
    <linearGradient id="vibrantGradient4" x1="0%" y1="0%" x2="100%" y2="100%">
        <stop offset="0%" style="stop-color:#FF0A54" />
        <stop offset="25%" style="stop-color:#FF477E" />
        <stop offset="50%" style="stop-color:#0AFFEF" />
        <stop offset="75%" style="stop-color:#845EF7" />
        <stop offset="100%" style="stop-color:#B5179E" />
    </linearGradient>
    <linearGradient id="vibrantGradient5" x1="0%" y1="0%" x2="100%" y2="100%">
        <stop offset="0%" style="stop-color:#FF0A54" />
        <stop offset="25%" style="stop-color:#FF477E" />
        <stop offset="50%" style="stop-color:#0AFFEF" />
        <stop offset="75%" style="stop-color:#845EF7" />
        <stop offset="100%" style="stop-color:#B5179E" />
    </linearGradient>
    <path fill="url(#vibrantGradient1)"
          d="M51.12,15.71l-8.83-8.83C41.73,6.31,40.97,6,40.17,6H15c-1.65,0-3,1.35-3,3v46 c0,1.65,1.35,3,3,3h34c1.65,0,3-1.35,3-3V17.83C52,17.03,51.69,16.27,51.12,15.71z M42,9.41L48.59,16H43c-0.55,0-1-0.45-1-1V9.41z M50,55c0,0.55-0.45,1-1,1H15c-0.55,0-1-0.45-1-1V9c0-0.55,0.45-1,1-1h25v7c0,1.65,1.35,3,3,3h7V55z">
    </path>
    <path fill="url(#vibrantGradient2)" d="M23 31H41V33H23z"></path>
    <path fill="url(#vibrantGradient3)" d="M23 35H41V37H23z"></path>
    <path fill="url(#vibrantGradient4)" d="M23 39H41V41H23z"></path>
    <path fill="url(#vibrantGradient5)" d="M23 43H33V45H23z"></path>
</svg>