<svg xmlns="http://www.w3.org/2000/svg" viewBox="0 0 400 400" width="400" height="400">
    <defs>
        <!-- DUSTCORE ENHANCED COLOR GRADIENTS -->
        <linearGradient id="dustcoreGradient" x1="0%" y1="0%" x2="100%" y2="100%">
            <stop offset="0%" stop-color="#ff99cc"/>
            <stop offset="25%" stop-color="#cc99ff"/>
            <stop offset="50%" stop-color="#99ffcc"/>
            <stop offset="75%" stop-color="#ffcc66"/>
            <stop offset="100%" stop-color="#99ccff"/>
        </linearGradient>
        
        <!-- CHROME REFLECTION GRADIENT -->
        <linearGradient id="chromeGradient" x1="0%" y1="0%" x2="100%" y2="100%">
            <stop offset="0%" stop-color="#ffffff" stop-opacity="0.9"/>
            <stop offset="20%" stop-color="#e0e0e0" stop-opacity="0.8"/>
            <stop offset="40%" stop-color="#707070" stop-opacity="0.7"/>
            <stop offset="60%" stop-color="#303030" stop-opacity="0.7"/>
            <stop offset="80%" stop-color="#808080" stop-opacity="0.8"/>
            <stop offset="100%" stop-color="#ffffff" stop-opacity="0.9"/>
        </linearGradient>
        
        <!-- SOFT NOSTALGIC GLOW -->
        <filter id="softGlow" x="-30%" y="-30%" width="160%" height="160%">
            <feGaussianBlur in="SourceGraphic" stdDeviation="2"/>
            <feComponentTransfer>
                <feFuncA type="linear" slope="0.4"/>
            </feComponentTransfer>
            <feMerge>
                <feMergeNode/>
                <feMergeNode in="SourceGraphic"/>
            </feMerge>
        </filter>
        
        <!-- SYNTHETIC REFLECTION -->
        <linearGradient id="syntheticReflect" x1="0%" y1="0%" x2="0%" y2="100%">
            <stop offset="0%" stop-color="#ffffff" stop-opacity="0.3"/>
            <stop offset="50%" stop-color="#000000" stop-opacity="0.1"/>
            <stop offset="100%" stop-color="#ffffff" stop-opacity="0.3"/>
            <animateTransform attributeName="gradientTransform" type="translate" values="0,-50; 0,50; 0,-50" dur="8s" repeatCount="indefinite"/>
        </linearGradient>
        
        <!-- PARTICLE GRADIENT - ENHANCED COLORS -->
        <radialGradient id="particleGradient" cx="50%" cy="50%" r="50%">
            <stop offset="0%" stop-color="#ff99ff" stop-opacity="1.0"/>
            <stop offset="40%" stop-color="#99ccff" stop-opacity="0.6"/>
            <stop offset="100%" stop-color="#ff99cc" stop-opacity="0"/>
        </radialGradient>
        
        <!-- CRYSTALLINE FACE GRADIENTS - VIBRANT -->
        <linearGradient id="faceGradient1" x1="0%" y1="0%" x2="100%" y2="100%">
            <stop offset="0%" stop-color="#99ffcc" stop-opacity="0.5"/>
            <stop offset="100%" stop-color="#cc99ff" stop-opacity="0.3"/>
        </linearGradient>
        
        <linearGradient id="faceGradient2" x1="100%" y1="0%" x2="0%" y2="100%">
            <stop offset="0%" stop-color="#ff99cc" stop-opacity="0.5"/>
            <stop offset="100%" stop-color="#ffcc66" stop-opacity="0.3"/>
        </linearGradient>
        
        <!-- PIXEL NOISE PATTERN -->
        <pattern id="pixelNoise" patternUnits="userSpaceOnUse" width="4" height="4">
            <rect x="0" y="0" width="1" height="1" fill="#000000" opacity="0.03"/>
            <rect x="2" y="1" width="1" height="1" fill="#ffffff" opacity="0.05"/>
            <rect x="1" y="2" width="1" height="1" fill="#000000" opacity="0.02"/>
            <rect x="3" y="3" width="1" height="1" fill="#ffffff" opacity="0.04"/>
        </pattern>
        
        <!-- DUST PARTICLES -->
        <pattern id="dustParticles" x="0" y="0" width="80" height="80" patternUnits="userSpaceOnUse">
            <circle cx="15" cy="25" r="0.4" fill="#000000" opacity="0.06"/>
            <circle cx="45" cy="8" r="0.3" fill="#ffffff" opacity="0.08"/>
            <circle cx="65" cy="55" r="0.35" fill="#000000" opacity="0.04"/>
            <circle cx="30" cy="70" r="0.5" fill="#ffffff" opacity="0.07"/>
            <circle cx="8" cy="50" r="0.25" fill="#000000" opacity="0.05"/>
        </pattern>
        
        <!-- SCANLINE PATTERN -->
        <pattern id="scanlines" patternUnits="userSpaceOnUse" width="400" height="3">
            <line x1="0" y1="0" x2="400" y2="0" stroke="#000000" stroke-width="0.5" opacity="0.015"/>
            <line x1="0" y1="2" x2="400" y2="2" stroke="#ffffff" stroke-width="0.5" opacity="0.015"/>
        </pattern>
    </defs>
    
    <!-- BACKGROUND LAYERS -->
    <rect width="400" height="400" rx="8" fill="#fff0f5" opacity="0.6"/>
    <rect width="400" height="400" rx="8" fill="url(#pixelNoise)"/>
    <rect width="400" height="400" rx="8" fill="url(#dustParticles)"/>
    
    <!-- MAIN GEOMETRY SECTION -->
    <g transform="translate(200, 200) scale(1.8)">
        <!-- Multiversal boundary with chrome effect -->
        <circle cx="0" cy="0" r="85" fill="none" stroke="url(#chromeGradient)" stroke-width="1" opacity="0.4"/>
        <circle cx="0" cy="0" r="83" fill="none" stroke="#ffffff" stroke-width="0.5" opacity="0.2"/>
        
        <!-- Octahedron vertices - COLORFUL CHROME SPHERES -->
        <g opacity="1">
            <!-- Top vertex - PINK -->
            <circle cx="0" cy="-80" r="5" fill="url(#chromeGradient)" filter="url(#softGlow)"/>
            <circle cx="0" cy="-80" r="3.5" fill="url(#syntheticReflect)"/>
            <circle cx="0" cy="-80" r="2" fill="#ff99cc" opacity="0.6">
                <animate attributeName="opacity" values="0.6;0.9;0.6" dur="4s" repeatCount="indefinite"/>
            </circle>
            
            <!-- Right vertex - PURPLE -->
            <circle cx="80" cy="0" r="5" fill="url(#chromeGradient)" filter="url(#softGlow)"/>
            <circle cx="80" cy="0" r="3.5" fill="url(#syntheticReflect)"/>
            <circle cx="80" cy="0" r="2" fill="#cc99ff" opacity="0.6">
                <animate attributeName="opacity" values="0.6;0.9;0.6" dur="4s" begin="1s" repeatCount="indefinite"/>
            </circle>
            
            <!-- Bottom vertex - MINT -->
            <circle cx="0" cy="80" r="5" fill="url(#chromeGradient)" filter="url(#softGlow)"/>
            <circle cx="0" cy="80" r="3.5" fill="url(#syntheticReflect)"/>
            <circle cx="0" cy="80" r="2" fill="#99ffcc" opacity="0.6">
                <animate attributeName="opacity" values="0.6;0.9;0.6" dur="4s" begin="2s" repeatCount="indefinite"/>
            </circle>
            
            <!-- Left vertex - ORANGE -->
            <circle cx="-80" cy="0" r="5" fill="url(#chromeGradient)" filter="url(#softGlow)"/>
            <circle cx="-80" cy="0" r="3.5" fill="url(#syntheticReflect)"/>
            <circle cx="-80" cy="0" r="2" fill="#ffcc66" opacity="0.6">
                <animate attributeName="opacity" values="0.6;0.9;0.6" dur="4s" begin="3s" repeatCount="indefinite"/>
            </circle>
            
            <!-- Center vertex - SKY BLUE -->
            <circle cx="0" cy="0" r="6" fill="url(#chromeGradient)" filter="url(#softGlow)"/>
            <circle cx="0" cy="0" r="4.5" fill="url(#syntheticReflect)"/>
            <circle cx="0" cy="0" r="2.5" fill="#99ccff" opacity="0.7">
                <animate attributeName="opacity" values="0.7;1;0.7" dur="3s" repeatCount="indefinite"/>
            </circle>
        </g>
        
        <!-- Quantum stability structure - VIBRANT PASTEL LINES -->
        <g stroke="url(#dustcoreGradient)" stroke-width="1.5" opacity="0.7">
            <line x1="0" y1="-80" x2="80" y2="0"/>
            <line x1="0" y1="-80" x2="0" y2="0"/>
            <line x1="0" y1="-80" x2="-80" y2="0"/>
            <line x1="0" y1="80" x2="80" y2="0"/>
            <line x1="0" y1="80" x2="0" y2="0"/>
            <line x1="0" y1="80" x2="-80" y2="0"/>
            <line x1="80" y1="0" x2="0" y2="0"/>
            <line x1="0" y1="0" x2="-80" y2="0"/>
        </g>
        
        <!-- Chrome reflection lines -->
        <g stroke="url(#chromeGradient)" stroke-width="0.7" opacity="0.5">
            <line x1="0" y1="-80" x2="80" y2="0"/>
            <line x1="0" y1="-80" x2="-80" y2="0"/>
            <line x1="0" y1="80" x2="80" y2="0"/>
            <line x1="0" y1="80" x2="-80" y2="0"/>
        </g>
        
        <!-- Flux field faces - COLORFUL PASTELS -->
        <g opacity="0.35">
            <path d="M 0,-80 L 80,0 L 0,0 Z" fill="url(#faceGradient1)"/>
            <path d="M 0,-80 L 0,0 L -80,0 Z" fill="url(#faceGradient2)"/>
            <path d="M 0,80 L 80,0 L 0,0 Z" fill="url(#faceGradient2)"/>
            <path d="M 0,80 L 0,0 L -80,0 Z" fill="url(#faceGradient1)"/>
        </g>
        
        <!-- Harmonic alignment circles - DUSTCORE STYLE -->
        <g stroke="#808080" stroke-width="0.5" opacity="0.3" fill="none">
            <circle cx="0" cy="0" r="40" stroke-dasharray="2 3">
                <animateTransform attributeName="transform" type="rotate" from="0 0 0" to="360 0 0" dur="60s" repeatCount="indefinite"/>
            </circle>
            <circle cx="0" cy="0" r="60" stroke-dasharray="3 4">
                <animateTransform attributeName="transform" type="rotate" from="0 0 0" to="-360 0 0" dur="80s" repeatCount="indefinite"/>
            </circle>
        </g>
        
        <!-- INTERDIMENSIONAL TRANSMITTER - COLORFUL CHROME -->
        <path d="M -15,-60 L -45,-30 C -60,-15 -60,15 -45,30 L -15,60 L 15,60 L 45,30 C 60,15 60,-15 45,-30 L 15,-60 Z" 
              fill="none" stroke="url(#chromeGradient)" stroke-width="6" stroke-linejoin="round" stroke-linecap="round" opacity="0.8" filter="url(#softGlow)">
            <animate attributeName="stroke-width" values="6;7.5;6" dur="5s" repeatCount="indefinite" calcMode="spline" keySplines="0.4 0 0.2 1; 0.4 0 0.2 1"/>
            <animate attributeName="opacity" values="0.8;1;0.8" dur="5s" repeatCount="indefinite"/>
        </path>
        
        <!-- Inner transmitter glow - VIBRANT FILL -->
        <path d="M -12,-48 L -36,-24 C -48,-12 -48,12 -36,24 L -12,48 L 12,48 L 36,24 C 48,12 48,-12 36,-24 L 12,-48 Z" 
              fill="url(#dustcoreGradient)" opacity="0.25"/>
    </g>
    
    <!-- FLOATING DUST PARTICLES -->
    <g opacity="0.4">
        <circle cx="120" cy="150" r="0.8" fill="#ffffff" opacity="0.3">
            <animate attributeName="cy" values="150;140;150" dur="6s" repeatCount="indefinite"/>
            <animate attributeName="opacity" values="0.3;0.5;0.3" dur="6s" repeatCount="indefinite"/>
        </circle>
        <circle cx="300" cy="250" r="0.6" fill="#000000" opacity="0.2">
            <animate attributeName="cy" values="250;240;250" dur="7s" repeatCount="indefinite"/>
            <animate attributeName="opacity" values="0.2;0.35;0.2" dur="7s" repeatCount="indefinite"/>
        </circle>
        <circle cx="280" cy="120" r="0.7" fill="#ffffff" opacity="0.25">
            <animate attributeName="cy" values="120;110;120" dur="8s" repeatCount="indefinite"/>
            <animate attributeName="opacity" values="0.25;0.4;0.25" dur="8s" repeatCount="indefinite"/>
        </circle>
    </g>
    
    <!-- SCANLINE OVERLAY -->
    <rect width="400" height="400" fill="url(#scanlines)" opacity="0.4"/>
    
    <!-- GLITCH ARTIFACTS -->
    <g opacity="0.2">
        <rect x="100" y="180" width="2" height="1" fill="#000000">
            <animate attributeName="opacity" values="0;0.2;0" dur="8s" repeatCount="indefinite"/>
        </rect>
        <rect x="250" y="220" width="1" height="1" fill="#ffffff">
            <animate attributeName="opacity" values="0;0.15;0" dur="10s" repeatCount="indefinite"/>
        </rect>
        <rect x="180" y="160" width="1" height="1" fill="#000000">
            <animate attributeName="opacity" values="0;0.18;0" dur="12s" repeatCount="indefinite"/>
        </rect>
    </g>
    
    <!-- DEAD PIXELS -->
    <g opacity="0.5">
        <rect x="95" y="185" width="1" height="1" fill="#000000"/>
        <rect x="305" y="125" width="1" height="1" fill="#ffffff"/>
        <rect x="185" y="295" width="1" height="1" fill="#000000"/>
        <rect x="275" y="205" width="1" height="1" fill="#ffffff"/>
    </g>
</svg>