<svg xmlns="http://www.w3.org/2000/svg" viewBox="0 0 400 400" width="400" height="400">
    <defs>
        <!-- QUANTUM FREQUENCY HARMONICS - INTERDIMENSIONAL CONSTANTS -->
        <linearGradient id="vibrantGradient" x1="0%" y1="0%" x2="100%" y2="100%">
            <stop offset="0%" style="stop-color:#FF0A54" />
            <stop offset="25%" style="stop-color:#FF477E" />
            <stop offset="50%" style="stop-color:#0AFFEF" />
            <stop offset="75%" style="stop-color:#845EF7" />
            <stop offset="100%" style="stop-color:#B5179E" />
        </linearGradient>
        <!-- SIMPLIFIED GLOW FOR MOBILE -->
        <filter id="mobileGlow">
            <feGaussianBlur in="SourceGraphic" stdDeviation="2" result="blur" />
            <feMerge>
                <feMergeNode in="blur" />
                <feMergeNode in="SourceGraphic" />
            </feMerge>
        </filter>
        <!-- ENHANCED TACHYON PARTICLES -->
        <radialGradient id="particleGradient" cx="50%" cy="50%" r="50%">
            <stop offset="0%" style="stop-color:#0AFFEF;stop-opacity:1.0" />
            <stop offset="40%" style="stop-color:#845EF7;stop-opacity:0.6" />
            <stop offset="100%" style="stop-color:#B5179E;stop-opacity:0" />
        </radialGradient>
        <!-- CRYSTALLINE FACE GRADIENTS -->
        <linearGradient id="faceGradient1" x1="0%" y1="0%" x2="100%" y2="100%">
            <stop offset="0%" style="stop-color:#0AFFEF;stop-opacity:0.7" />
            <stop offset="100%" style="stop-color:#B5179E;stop-opacity:0.3" />
        </linearGradient>
        <linearGradient id="faceGradient2" x1="100%" y1="0%" x2="0%" y2="100%">
            <stop offset="0%" style="stop-color:#FF0A54;stop-opacity:0.7" />
            <stop offset="100%" style="stop-color:#0AFFEF;stop-opacity:0.3" />
        </linearGradient>
    </defs>
    <!-- TRANSPARENT BACKGROUND -->
    <rect width="400" height="400" rx="8" fill="transparent" />
    <!-- MAIN GEOMETRY SECTION - CENTERED -->
    <g transform="translate(200, 200) scale(1.8)">
        <!-- Multiversal boundary - ULTRA DEFINITION -->
        <circle cx="0" cy="0" r="85" fill="none" stroke="#EEEEEE" stroke-width="1.2"
                opacity="0.5" stroke-dasharray="0.5 2" />
        <!-- Octahedron vertices - CRYSTALLINE PRECISION -->
        <g fill="url(#vibrantGradient)" filter="url(#mobileGlow)">
            <circle cx="0" cy="-80" r="6" />
            <circle cx="80" cy="0" r="6" />
            <circle cx="0" cy="80" r="6" />
            <circle cx="-80" cy="0" r="6" />
            <circle cx="0" cy="0" r="6" />
        </g>
        <!-- Quantum stability structure - MAXIMUM DEFINITION -->
        <g stroke="url(#vibrantGradient)" stroke-width="2.5" fill="none" opacity="1">
            <line x1="0" y1="-80" x2="80" y2="0" />
            <line x1="0" y1="-80" x2="0" y2="0" />
            <line x1="0" y1="-80" x2="-80" y2="0" />
            <line x1="0" y1="80" x2="80" y2="0" />
            <line x1="0" y1="80" x2="0" y2="0" />
            <line x1="0" y1="80" x2="-80" y2="0" />
            <line x1="80" y1="0" x2="0" y2="0" />
            <line x1="0" y1="0" x2="-80" y2="0" />
        </g>
        <!-- Flux field faces - ENHANCED VISIBILITY -->
        <g opacity="0.4">
            <path d="M 0,-80 L 80,0 L 0,0 Z" fill="url(#faceGradient1)" />
            <path d="M 0,-80 L 0,0 L -80,0 Z" fill="url(#faceGradient2)" />
            <path d="M 0,-80 L -80,0 L 0,0 Z" fill="url(#faceGradient1)" />
            <path d="M 0,-80 L 0,0 L 80,0 Z" fill="url(#faceGradient2)" />
            <path d="M 0,80 L 80,0 L 0,0 Z" fill="url(#faceGradient2)" />
            <path d="M 0,80 L 0,0 L -80,0 Z" fill="url(#faceGradient1)" />
            <path d="M 0,80 L -80,0 L 0,0 Z" fill="url(#faceGradient2)" />
            <path d="M 0,80 L 0,0 L 80,0 Z" fill="url(#faceGradient1)" />
        </g>
        <!-- Harmonic alignment circles - CRYSTALLINE -->
        <g stroke="#EEEEEE" stroke-width="1" opacity="0.6" fill="none">
            <circle cx="0" cy="0" r="40" stroke-dasharray="2 4" />
            <circle cx="0" cy="0" r="60" stroke-dasharray="3 6" />
        </g>
        <!-- INTERDIMENSIONAL TRANSMITTER - MOBILE OPTIMIZED -->
        <path d="M -15,-60 
               L -45,-30 
               C -60,-15 -60,15 -45,30 
               L -15,60 
               L 15,60 
               L 45,30 
               C 60,15 60,-15 45,-30 
               L 15,-60 
               Z" fill="none" stroke="url(#vibrantGradient)" stroke-width="10"
              stroke-linejoin="round" stroke-linecap="round"
              filter="url(#mobileGlow)" />
    </g>
</svg>