<svg xmlns="http://www.w3.org/2000/svg" width="320" height="320" viewBox="0 0 320 320">
    <defs>
        <!-- Minimal Binary Gradient -->
        <linearGradient id="minSquareGrad" x1="0%" y1="0%" x2="100%" y2="100%">
            <stop offset="0%" style="stop-color:#ffffff"/>
            <stop offset="50%" style="stop-color:#845ef7"/>
            <stop offset="100%" style="stop-color:#000000"/>
        </linearGradient>
        
        <radialGradient id="minSquareCore" cx="50%" cy="50%" r="50%">
            <stop offset="0%" style="stop-color:#ffffff" stop-opacity="1"/>
            <stop offset="100%" style="stop-color:#000000" stop-opacity="0.2"/>
        </radialGradient>
    </defs>
    
    <!-- Foundation: Pure Square -->
    <rect x="20" y="20" width="280" height="280" fill="#ffffff"/>
    <rect x="20" y="20" width="280" height="280" fill="url(#minSquareCore)" opacity="0.3"/>
    
    <!-- Primary Element: Triangle -->
    <g transform="translate(160,160)">
        <polygon points="0,-100 87,50 -87,50" fill="none" stroke="#000000" stroke-width="3"/>
        <polygon points="0,-100 87,50 -87,50" fill="url(#minSquareGrad)" opacity="0.2"/>
    </g>
    
    <!-- Secondary Element: Square -->
    <g transform="translate(160,160) rotate(45)">
        <rect x="-50" y="-50" width="100" height="100" fill="none" stroke="#000000" stroke-width="2"/>
        <rect x="-50" y="-50" width="100" height="100" fill="#845ef7" opacity="0.15"/>
    </g>
    
    <!-- Tertiary Element: Circle -->
    <g transform="translate(160,160)">
        <circle r="30" fill="none" stroke="#000000" stroke-width="2"/>
        <circle r="30" fill="#ff0a54" opacity="0.1"/>
    </g>
    
    <!-- Core Point -->
    <g transform="translate(160,160)">
        <circle r="8" fill="#000000"/>
        <circle r="4" fill="#ffffff"/>
    </g>
    
    <!-- Corner Anchors -->
    <circle cx="40" cy="40" r="3" fill="#000000"/>
    <circle cx="280" cy="40" r="3" fill="#000000"/>
    <circle cx="40" cy="280" r="3" fill="#000000"/>
    <circle cx="280" cy="280" r="3" fill="#000000"/>
    
    <!-- Border -->
    <rect x="20" y="20" width="280" height="280" fill="none" stroke="#000000" stroke-width="4"/>
</svg>