<svg xmlns="http://www.w3.org/2000/svg" width="16" height="16" viewBox="0 0 64 64"
     style="vertical-align: middle;">
    <defs>
        <linearGradient id="vibrantGradient2" x1="0%" y1="0%" x2="100%" y2="100%">
            <stop offset="0%" style="stop-color:#FF0A54" />
            <stop offset="25%" style="stop-color:#FF477E" />
            <stop offset="50%" style="stop-color:#0AFFEF" />
            <stop offset="75%" style="stop-color:#845EF7" />
            <stop offset="100%" style="stop-color:#B5179E" />
        </linearGradient>
    </defs>
    <path fill="url(#vibrantGradient2)"
          d="M49,55H15c-3.309,0-6-2.691-6-6V15c0-3.309,2.691-6,6-6h34c3.309,0,6,2.691,6,6v34C55,52.309,52.309,55,49,55z M15,11c-2.206,0-4,1.794-4,4v34c0,2.206,1.794,4,4,4h34c2.206,0,4-1.794,4-4V15c0-2.206-1.794-4-4-4H15z M26.978,22l14.108,20h-3.063L23.914,22H26.978z M51,15v34c0,1.1-0.9,2-2,2H15c-1.1,0-2-0.9-2-2V15c0-1.1,0.9-2,2-2h34C50.1,13,51,13.9,51,15z M44.914,44L34.789,29.613L43,20h-2.5l-6.841,8.009L28.022,20h-7.937l9.222,13.103L20,44h2.5l7.937-9.292L36.978,44H44.914z">
    </path>
</svg>