<svg viewBox="0 0 100 100" xmlns="http://www.w3.org/2000/svg">
  <defs>
    <filter id="wheelShadow">
      <feGaussianBlur in="SourceAlpha" stdDeviation="2.5"/>
      <feOffset dx="2" dy="2" result="offsetblur"/>
      <feFlood flood-color="#000000" flood-opacity="0.3"/>
      <feComposite in2="offsetblur" operator="in"/>
      <feMerge>
        <feMergeNode/>
        <feMergeNode in="SourceGraphic"/>
      </feMerge>
    </filter>
    <filter id="innerGlow">
      <feGaussianBlur stdDeviation="3" result="coloredBlur"/>
      <feMerge>
        <feMergeNode in="coloredBlur"/>
        <feMergeNode in="SourceGraphic"/>
      </feMerge>
    </filter>
  </defs>
  
  <g filter="url(#wheelShadow)">
    <!-- Color wheel segments -->
    <g transform="translate(50,50)">
      <!-- Red -->
      <path d="M 0,0 L 0,-30 A 30,30 0 0,1 26,-15 Z" fill="#FF0000" filter="url(#innerGlow)">
        <animateTransform attributeName="transform" type="rotate" from="0" to="360" dur="20s" repeatCount="indefinite"/>
      </path>
      
      <!-- Orange -->
      <path d="M 0,0 L 26,-15 A 30,30 0 0,1 26,15 Z" fill="#FF8C00" filter="url(#innerGlow)">
        <animateTransform attributeName="transform" type="rotate" from="0" to="360" dur="20s" repeatCount="indefinite"/>
      </path>
      
      <!-- Yellow -->
      <path d="M 0,0 L 26,15 A 30,30 0 0,1 0,30 Z" fill="#FFD700" filter="url(#innerGlow)">
        <animateTransform attributeName="transform" type="rotate" from="0" to="360" dur="20s" repeatCount="indefinite"/>
      </path>
      
      <!-- Green -->
      <path d="M 0,0 L 0,30 A 30,30 0 0,1 -26,15 Z" fill="#00FF00" filter="url(#innerGlow)">
        <animateTransform attributeName="transform" type="rotate" from="0" to="360" dur="20s" repeatCount="indefinite"/>
      </path>
      
      <!-- Cyan -->
      <path d="M 0,0 L -26,15 A 30,30 0 0,1 -26,-15 Z" fill="#00FFFF" filter="url(#innerGlow)">
        <animateTransform attributeName="transform" type="rotate" from="0" to="360" dur="20s" repeatCount="indefinite"/>
      </path>
      
      <!-- Blue -->
      <path d="M 0,0 L -26,-15 A 30,30 0 0,1 0,-30 Z" fill="#0000FF" filter="url(#innerGlow)">
        <animateTransform attributeName="transform" type="rotate" from="0" to="360" dur="20s" repeatCount="indefinite"/>
      </path>
      
      <!-- Purple (completing the wheel) -->
      <path d="M 0,0 L 0,-30 A 30,30 0 0,1 15,-26 Z" fill="#8B008B" filter="url(#innerGlow)" transform="rotate(30)">
        <animateTransform attributeName="transform" type="rotate" from="30" to="390" dur="20s" repeatCount="indefinite"/>
      </path>
      
      <path d="M 0,0 L 15,-26 A 30,30 0 0,1 26,-15 Z" fill="#FF1493" filter="url(#innerGlow)" transform="rotate(30)">
        <animateTransform attributeName="transform" type="rotate" from="30" to="390" dur="20s" repeatCount="indefinite"/>
      </path>
      
      <!-- Inner circle -->
      <circle cx="0" cy="0" r="12" fill="#FFFFFF" stroke="#E0E0E0" stroke-width="1"/>
      
      <!-- Center dot -->
      <circle cx="0" cy="0" r="3" fill="#333333">
        <animate attributeName="r" values="3;4;3" dur="2s" repeatCount="indefinite"/>
      </circle>
    </g>
  </g>
  
  <!-- Floating color particles -->
  <circle cx="25" cy="25" r="2" fill="#FF00FF" opacity="0.6">
    <animate attributeName="cy" values="25;20;25" dur="3s" repeatCount="indefinite"/>
    <animate attributeName="opacity" values="0.6;0.3;0.6" dur="3s" repeatCount="indefinite"/>
  </circle>
  
  <circle cx="75" cy="75" r="2" fill="#00FF00" opacity="0.6">
    <animate attributeName="cy" values="75;80;75" dur="2.5s" repeatCount="indefinite"/>
    <animate attributeName="opacity" values="0.6;0.3;0.6" dur="2.5s" repeatCount="indefinite"/>
  </circle>
</svg>