<svg xmlns="http://www.w3.org/2000/svg" width="24" height="24" viewBox="0 0 64 64" style="vertical-align: middle;">
  <defs>
    <!-- PRISMATIC DIAMOND GRADIENTS - LIGHT ADJUSTED (palette match) -->
    <linearGradient id="prismRedLight" x1="0%" y1="0%" x2="100%" y2="100%">
      <stop offset="0%"  style="stop-color:#ff6666;stop-opacity:1"/>
      <stop offset="20%" style="stop-color:#ff0000;stop-opacity:1"/>
      <stop offset="40%" style="stop-color:#ff0066;stop-opacity:1">
        <animate attributeName="stop-color" values="#ff0066;#ff00aa;#ff0033;#ff0066" dur="6s" repeatCount="indefinite"/>
      </stop>
      <stop offset="70%" style="stop-color:#ff00ff;stop-opacity:1"/>
      <stop offset="100%" style="stop-color:#cc0033;stop-opacity:1"/>
    </linearGradient>

    <linearGradient id="prismBlueLight" x1="100%" y1="0%" x2="0%" y2="100%">
      <stop offset="0%"  style="stop-color:#6666ff;stop-opacity:1"/>
      <stop offset="20%" style="stop-color:#0000ff;stop-opacity:1"/>
      <stop offset="40%" style="stop-color:#0066ff;stop-opacity:1">
        <animate attributeName="stop-color" values="#0066ff;#00aaff;#0033ff;#0066ff" dur="6s" repeatCount="indefinite"/>
      </stop>
      <stop offset="70%" style="stop-color:#00ccff;stop-opacity:1"/>
      <stop offset="100%" style="stop-color:#0033cc;stop-opacity:1"/>
    </linearGradient>

    <linearGradient id="prismYellowLight" x1="0%" y1="100%" x2="100%" y2="0%">
      <stop offset="0%"  style="stop-color:#ffffaa;stop-opacity:1"/>
      <stop offset="20%" style="stop-color:#ffff00;stop-opacity:1"/>
      <stop offset="40%" style="stop-color:#ffcc00;stop-opacity:1">
        <animate attributeName="stop-color" values="#ffcc00;#ffaa00;#ffdd00;#ffcc00" dur="6s" repeatCount="indefinite"/>
      </stop>
      <stop offset="70%" style="stop-color:#ff9900;stop-opacity:1"/>
      <stop offset="100%" style="stop-color:#cc9900;stop-opacity:1"/>
    </linearGradient>

    <!-- Holo core for the main fill (cycles through palette) -->
    <radialGradient id="holoCore" cx="50%" cy="45%" r="60%">
      <stop offset="0%"  stop-color="#ffffff"/>
      <stop offset="30%" stop-color="#ff66aa">
        <animate attributeName="stop-color" values="#ff66aa;#ff0066;#ff99cc;#ff66aa" dur="8s" repeatCount="indefinite"/>
      </stop>
      <stop offset="60%" stop-color="#66aaff">
        <animate attributeName="stop-color" values="#66aaff;#0066ff;#00ccff;#66aaff" dur="8s" begin="0.6s" repeatCount="indefinite"/>
      </stop>
      <stop offset="85%" stop-color="#ffcc33">
        <animate attributeName="stop-color" values="#ffcc33;#ff9900;#ffff66;#ffcc33" dur="8s" begin="1.2s" repeatCount="indefinite"/>
      </stop>
      <stop offset="100%" stop-color="#000000"/>
    </radialGradient>

    <!-- Outline gradient sweep -->
    <linearGradient id="outlineGrad" x1="0%" y1="0%" x2="100%" y2="0%">
      <stop offset="0%"  stop-color="#ff0066"/>
      <stop offset="50%" stop-color="#00aaff"/>
      <stop offset="100%" stop-color="#ffcc00"/>
      <animate attributeName="gradientTransform" values="translate(0,0);translate(1,0)" dur="5s" repeatCount="indefinite"/>
    </linearGradient>

    <!-- Soft glow -->
    <filter id="softGlow" x="-40%" y="-40%" width="180%" height="180%">
      <feGaussianBlur in="SourceGraphic" stdDeviation="0.8"/>
      <feColorMatrix type="matrix" values="1.3 0 0 0 0  0 1.3 0 0 0  0 0 1.3 0 0  0 0 0 1 0"/>
      <feMerge>
        <feMergeNode/>
        <feMergeNode in="SourceGraphic"/>
      </feMerge>
    </filter>

    <!-- Sheen gradient (diagonal sweep used inside clip) -->
    <linearGradient id="sheenGrad" x1="0" y1="0" x2="64" y2="64" gradientUnits="userSpaceOnUse">
      <stop offset="35%" stop-color="#ffffff" stop-opacity="0"/>
      <stop offset="50%" stop-color="#ffffff" stop-opacity="0.45"/>
      <stop offset="65%" stop-color="#ffffff" stop-opacity="0"/>
    </linearGradient>

    <!-- Clip to the discord shape for the sheen -->
    <clipPath id="shapeClip">
      <path id="discordShapeClip" d="M52.263,15.938c-4.816-3.871-13.024-4.925-13.372-4.968c-0.437-0.057-0.855,0.182-1.035,0.583c-0.025,0.055-0.543,1.23-0.778,2.782C35.086,14.073,33.313,14,31.983,14c-1.373,0-3.216,0.076-5.289,0.36c-0.233-1.564-0.757-2.753-0.782-2.808c-0.18-0.401-0.598-0.636-1.039-0.583c-0.337,0.043-8.322,1.099-13.188,5.013C9.122,18.35,4,32.125,4,44c0,0.173,0.045,0.344,0.131,0.495c3.427,6.02,13.558,8.432,15.837,8.505c0.011,0,0.021,0,0.032,0c0.303,0,0.591-0.138,0.781-0.375l3.495-4.368C26.519,48.703,29.098,49,32.024,49c2.911,0,5.474-0.294,7.706-0.737l3.49,4.362C43.409,52.862,43.697,53,44,53c0.011,0,0.021,0,0.032,0c2.274-0.073,12.39-2.495,15.835-8.547c0.086-0.15,0.131-0.321,0.131-0.495C59.999,32.105,54.877,18.349,52.263,15.938z M44.451,50.963l-2.56-3.2c5.635-1.499,8.568-3.846,8.744-3.99c0.426-0.35,0.487-0.978,0.139-1.405c-0.349-0.426-0.978-0.49-1.406-0.143C49.309,42.273,43.365,47,32.024,47c-11.331,0-17.322-4.719-17.394-4.776c-0.427-0.348-1.057-0.284-1.405,0.145c-0.349,0.428-0.285,1.058,0.144,1.407c0.177,0.144,3.121,2.48,8.748,3.979l-2.567,3.209c-2.906-0.323-10.736-2.658-13.547-7.236c0.078-11.308,5.015-24.405,6.989-26.232c3.547-2.851,9.281-4.06,11.356-4.42c0.133,0.413,0.281,0.98,0.373,1.611c-2.991,0.579-6.274,1.619-9.246,3.463c-0.47,0.291-0.614,0.907-0.323,1.376c0.292,0.471,0.907,0.616,1.376,0.323C21.928,16.5,28.529,16,31.983,16c3.467,0,10.089,0.5,15.49,3.85c0.164,0.102,0.346,0.15,0.526,0.15c0.334,0,0.662-0.168,0.851-0.473c0.292-0.469,0.147-1.085-0.323-1.376c-3.043-1.888-6.417-2.931-9.473-3.502c0.093-0.618,0.239-1.171,0.369-1.576c2.109,0.352,8.01,1.549,11.534,4.379c2.026,1.871,6.961,14.95,7.04,26.235C55.172,48.292,47.352,50.640,44.451,50.963z M24 30A4 4.5 0 1 0 24 39A4 4.5 0 1 0 24 30Z M39.938 30A3.938 4.5 0 1 0 39.938 39A3.938 4.5 0 1 0 39.938 30Z"/>
    </clipPath>

    <!-- Orbit path for particles -->
    <path id="orbit" d="M32,6 A26,26 0 1,1 31.99,6 Z" fill="none"/>
  </defs>

  <!-- Subtle bob + tilt wrapper -->
  <g transform="translate(0,0)">
    <animateTransform attributeName="transform" type="translate"
                      values="0 0; 0 -0.8; 0 0; 0 0.8; 0 0"
                      keyTimes="0;0.25;0.5;0.75;1"
                      dur="6s" repeatCount="indefinite" calcMode="spline"
                      keySplines=".42 0 .58 1;.42 0 .58 1;.42 0 .58 1;.42 0 .58 1"/>
    <g transform="rotate(0 32 32)">
      <animateTransform attributeName="transform" type="rotate"
                        values="-2 32 32; 2 32 32; -2 32 32"
                        keyTimes="0;0.5;1"
                        dur="8s" repeatCount="indefinite" calcMode="spline"
                        keySplines=".42 0 .58 1;.42 0 .58 1"/>

      <!-- Main Discord shape -->
      <path id="discordShape" fill="url(#holoCore)" filter="url(#softGlow)"
            d="M52.263,15.938c-4.816-3.871-13.024-4.925-13.372-4.968c-0.437-0.057-0.855,0.182-1.035,0.583c-0.025,0.055-0.543,1.23-0.778,2.782C35.086,14.073,33.313,14,31.983,14c-1.373,0-3.216,0.076-5.289,0.36c-0.233-1.564-0.757-2.753-0.782-2.808c-0.18-0.401-0.598-0.636-1.039-0.583c-0.337,0.043-8.322,1.099-13.188,5.013C9.122,18.35,4,32.125,4,44c0,0.173,0.045,0.344,0.131,0.495c3.427,6.02,13.558,8.432,15.837,8.505c0.011,0,0.021,0,0.032,0c0.303,0,0.591-0.138,0.781-0.375l3.495-4.368C26.519,48.703,29.098,49,32.024,49c2.911,0,5.474-0.294,7.706-0.737l3.49,4.362C43.409,52.862,43.697,53,44,53c0.011,0,0.021,0,0.032,0c2.274-0.073,12.39-2.495,15.835-8.547c0.086-0.15,0.131-0.321,0.131-0.495C59.999,32.105,54.877,18.349,52.263,15.938z M44.451,50.963l-2.56-3.2c5.635-1.499,8.568-3.846,8.744-3.99c0.426-0.35,0.487-0.978,0.139-1.405c-0.349-0.426-0.978-0.49-1.406-0.143C49.309,42.273,43.365,47,32.024,47c-11.331,0-17.322-4.719-17.394-4.776c-0.427-0.348-1.057-0.284-1.405,0.145c-0.349,0.428-0.285,1.058,0.144,1.407c0.177,0.144,3.121,2.48,8.748,3.979l-2.567,3.209c-2.906-0.323-10.736-2.658-13.547-7.236c0.078-11.308,5.015-24.405,6.989-26.232c3.547-2.851,9.281-4.06,11.356-4.42c0.133,0.413,0.281,0.98,0.373,1.611c-2.991,0.579-6.274,1.619-9.246,3.463c-0.47,0.291-0.614,0.907-0.323,1.376c0.292,0.471,0.907,0.616,1.376,0.323C21.928,16.5,28.529,16,31.983,16c3.467,0,10.089,0.5,15.49,3.85c0.164,0.102,0.346,0.15,0.526,0.15c0.334,0,0.662-0.168,0.851-0.473c0.292-0.469,0.147-1.085-0.323-1.376c-3.043-1.888-6.417-2.931-9.473-3.502c0.093-0.618,0.239-1.171,0.369-1.576c2.109,0.352,8.01,1.549,11.534,4.379c2.026,1.871,6.961,14.95,7.04,26.235C55.172,48.292,47.352,50.640,44.451,50.963z M24 30A4 4.5 0 1 0 24 39A4 4.5 0 1 0 24 30Z M39.938 30A3.938 4.5 0 1 0 39.938 39A3.938 4.5 0 1 0 39.938 30Z">
        <animate attributeName="opacity" values="1;0.96;1" dur="3.2s" repeatCount="indefinite"/>
      </path>

      <!-- Outline sweep -->
      <path d="M52.263,15.938c-4.816-3.871-13.024-4.925-13.372-4.968c-0.437-0.057-0.855,0.182-1.035,0.583c-0.025,0.055-0.543,1.23-0.778,2.782C35.086,14.073,33.313,14,31.983,14c-1.373,0-3.216,0.076-5.289,0.36c-0.233-1.564-0.757-2.753-0.782-2.808c-0.18-0.401-0.598-0.636-1.039-0.583c-0.337,0.043-8.322,1.099-13.188,5.013C9.122,18.35,4,32.125,4,44c0,0.173,0.045,0.344,0.131,0.495c3.427,6.02,13.558,8.432,15.837,8.505c0.011,0,0.021,0,0.032,0c0.303,0,0.591-0.138,0.781-0.375l3.495-4.368C26.519,48.703,29.098,49,32.024,49c2.911,0,5.474-0.294,7.706-0.737l3.49,4.362C43.409,52.862,43.697,53,44,53c0.011,0,0.021,0,0.032,0c2.274-0.073,12.39-2.495,15.835-8.547c0.086-0.15,0.131-0.321,0.131-0.495C59.999,32.105,54.877,18.349,52.263,15.938z"
            fill="none" stroke="url(#outlineGrad)" stroke-width="1.4" opacity="0.8">
        <animate attributeName="opacity" values="0.65;0.95;0.65" dur="5s" repeatCount="indefinite"/>
      </path>

      <!-- Diagonal sheen clipped to shape -->
      <g clip-path="url(#shapeClip)">
        <rect x="-96" y="-16" width="160" height="96" fill="url(#sheenGrad)">
          <animate attributeName="x" values="-96;64;-96" dur="3.8s" repeatCount="indefinite" />
        </rect>
      </g>

      <!-- Eye glints (subtle pulse at eye centers) -->
      <g opacity="0.9">
        <circle cx="24" cy="34.5" r="1.2" fill="url(#prismYellowLight)">
          <animate attributeName="r" values="1.2;1.8;1.2" dur="2.4s" repeatCount="indefinite"/>
        </circle>
        <circle cx="39.94" cy="34.5" r="1.1" fill="url(#prismBlueLight)">
          <animate attributeName="r" values="1.1;1.7;1.1" dur="2.2s" begin="0.4s" repeatCount="indefinite"/>
        </circle>
      </g>
    </g>
  </g>

  <!-- Orbiting prismatic particles -->
  <g>
    <circle r="1.6" fill="url(#prismBlueLight)" opacity="0.9">
      <animateMotion dur="7.2s" repeatCount="indefinite" rotate="auto">
        <mpath href="#orbit"/>
      </animateMotion>
      <animate attributeName="opacity" values="0.9;0.5;0.9" dur="1.4s" repeatCount="indefinite"/>
    </circle>
    <circle r="1.4" fill="url(#prismRedLight)" opacity="0.9">
      <animateMotion dur="6.2s" begin="0.8s" repeatCount="indefinite" rotate="auto-reverse">
        <mpath href="#orbit"/>
      </animateMotion>
      <animate attributeName="opacity" values="0.9;0.5;0.9" dur="1.2s" repeatCount="indefinite"/>
    </circle>
    <circle r="1.3" fill="url(#prismYellowLight)" opacity="0.9">
      <animateMotion dur="8s" begin="1.6s" repeatCount="indefinite" rotate="auto">
        <mpath href="#orbit"/>
      </animateMotion>
      <animate attributeName="opacity" values="0.9;0.5;0.9" dur="1s" repeatCount="indefinite"/>
    </circle>
  </g>
</svg>
