<svg xmlns="http://www.w3.org/2000/svg" width="24" height="24"
     viewBox="0 0 64 64">
    <linearGradient id="chromeGradient" x1="0%" y1="0%" x2="100%" y2="100%">
        <stop offset="0%" stop-color="#ffffff" stop-opacity="0.9" />
        <stop offset="20%" stop-color="#e0e0e0" stop-opacity="0.8" />
        <stop offset="40%" stop-color="#707070" stop-opacity="0.7" />
        <stop offset="60%" stop-color="#303030" stop-opacity="0.7" />
        <stop offset="80%" stop-color="#808080" stop-opacity="0.8" />
        <stop offset="100%" stop-color="#ffffff" stop-opacity="0.9" />
    </linearGradient>
    <path fill="url(#chromeGradient)"
          d="M51.12,15.71l-8.83-8.83C41.73,6.31,40.97,6,40.17,6H15c-1.65,0-3,1.35-3,3v46 c0,1.65,1.35,3,3,3h34c1.65,0,3-1.35,3-3V17.83C52,17.03,51.69,16.27,51.12,15.71z M42,9.41L48.59,16H43c-0.55,0-1-0.45-1-1V9.41z M50,55c0,0.55-0.45,1-1,1H15c-0.55,0-1-0.45-1-1V9c0-0.55,0.45-1,1-1h25v7c0,1.65,1.35,3,3,3h7V55z">
    </path>
    <path fill="url(#chromeGradient)" d="M23 31H41V33H23z"></path>
    <path fill="url(#chromeGradient)" d="M23 35H41V37H23z"></path>
    <path fill="url(#chromeGradient)" d="M23 39H41V41H23z"></path>
    <path fill="url(#chromeGradient)" d="M23 43H33V45H23z"></path>
</svg>