<svg xmlns="http://www.w3.org/2000/svg" width="64" height="64" viewBox="0 0 64 64" class="icon-wrapper">
    <defs>
        <!-- Binary Opposition Gradient System -->
        <linearGradient id="binaryGradGH" x1="0%" y1="0%" x2="100%" y2="100%">
            <stop offset="0%" style="stop-color:#ffffff">
                <animate attributeName="stop-color" 
                         values="#ffffff;#ff0a54;#ffffff" 
                         dur="8s" 
                         repeatCount="indefinite"/>
            </stop>
            <stop offset="100%" style="stop-color:#000000">
                <animate attributeName="stop-color" 
                         values="#000000;#0affef;#000000" 
                         dur="8s" 
                         repeatCount="indefinite"/>
            </stop>
        </linearGradient>
        
        <!-- Core Radial Energy Field -->
        <radialGradient id="coreEnergyGH" cx="50%" cy="50%" r="50%">
            <stop offset="0%" style="stop-color:#ffffff" stop-opacity="1"/>
            <stop offset="50%" style="stop-color:#845ef7" stop-opacity="0.5">
                <animate attributeName="stop-opacity" 
                         values="0.5;1;0.5" 
                         dur="4s" 
                         repeatCount="indefinite"/>
            </stop>
            <stop offset="100%" style="stop-color:#000000" stop-opacity="0.1"/>
        </radialGradient>
        
        <!-- Minimal Blur Filter -->
        <!-- <filter id="minBlurGH">
            <feGaussianBlur stdDeviation="0.5"/>
        </filter> -->
    </defs>
    
    <!-- Background Fill with Core Energy -->
    <rect x="10" y="10" width="44" height="44" rx="8" 
          fill="url(#coreEnergyGH)" opacity="0.3"/>
    
    <!-- Primary Border with Breathing Animation -->
    <rect x="10" y="10" width="44" height="44" rx="8" 
          fill="none"
          stroke="#000000" 
          stroke-width="2.5">
        <animate attributeName="stroke-width" 
                 values="2.5;3;2.5" 
                 dur="4s" 
                 repeatCount="indefinite"/>
    </rect>
    
    <!-- GitHub Glyph with Binary Gradient -->
    <g transform="translate(32, 32) scale(0.6) translate(-24, -24)">
        <path d="M24 4C12.954 4 4 12.954 4 24c0 8.837 5.731 16.335 13.68 18.977.999.184 1.368-.433 1.368-.961 0-.474-.017-1.729-.027-3.394-5.563 1.209-6.736-2.682-6.736-2.682-.91-2.311-2.221-2.926-2.221-2.926-1.816-1.241.137-1.216.137-1.216 2.007.141 3.063 2.061 3.063 2.061 1.784 3.056 4.68 2.174 5.82 1.662.182-1.292.698-2.174 1.269-2.673-4.439-.505-9.106-2.219-9.106-9.876 0-2.181.779-3.966 2.057-5.364-.206-.506-.892-2.538.196-5.291 0 0 1.678-.537 5.495 2.049A19.16 19.16 0 0124 13.714c1.699.008 3.41.229 5.005.673 3.814-2.586 5.49-2.049 5.49-2.049 1.09 2.753.404 4.785.198 5.291 1.28 1.398 2.055 3.183 2.055 5.364 0 7.676-4.674 9.366-9.126 9.861.717.618 1.357 1.838 1.357 3.704 0 2.673-.024 4.83-.024 5.486 0 .533.36 1.154 1.375.959C38.273 40.33 44 32.834 44 24c0-11.046-8.954-20-20-20z"
              fill="none" 
              stroke="url(#binaryGradGH)" 
              stroke-width="2" 
              stroke-linecap="round"
              stroke-linejoin="round">
            <animate attributeName="opacity" 
                     values="0.8;1;0.8" 
                     dur="4s" 
                     repeatCount="indefinite"/>
        </path>
    </g>
    
    <!-- Orbital Elements: Binary Particles -->
    <circle r="1.5" fill="#ff0a54">
        <animateMotion path="M 32 32 m -26 0 a 26 26 0 1 1 52 0 a 26 26 0 1 1 -52 0" 
                       dur="12s" repeatCount="indefinite"/>
    </circle>
    <circle r="1.5" fill="#0affef">
        <animateMotion path="M 32 32 m -26 0 a 26 26 0 1 0 52 0 a 26 26 0 1 0 -52 0" 
                       dur="12s" repeatCount="indefinite"/>
    </circle>
</svg>