<svg xmlns="http://www.w3.org/2000/svg" width="64" height="64" viewBox="0 0 64 64" class="icon-wrapper">
    <defs>
        <!-- Binary Opposition Gradient System -->
        <linearGradient id="binaryGradTT" x1="0%" y1="0%" x2="100%" y2="100%">
            <stop offset="0%" style="stop-color:#ffffff">
                <animate attributeName="stop-color" 
                         values="#ffffff;#ff0a54;#ffffff" 
                         dur="8s" 
                         repeatCount="indefinite"/>
            </stop>
            <stop offset="100%" style="stop-color:#000000">
                <animate attributeName="stop-color" 
                         values="#000000;#0affef;#000000" 
                         dur="8s" 
                         repeatCount="indefinite"/>
            </stop>
        </linearGradient>
        
        <!-- Core Radial Energy Field -->
        <radialGradient id="coreEnergyTT" cx="50%" cy="50%" r="50%">
            <stop offset="0%" style="stop-color:#ffffff" stop-opacity="1"/>
            <stop offset="50%" style="stop-color:#845ef7" stop-opacity="0.5">
                <animate attributeName="stop-opacity" 
                         values="0.5;1;0.5" 
                         dur="4s" 
                         repeatCount="indefinite"/>
            </stop>
            <stop offset="100%" style="stop-color:#000000" stop-opacity="0.1"/>
        </radialGradient>
        
        <!-- Minimal Blur Filter -->
        <filter id="minBlurTT">
            <feGaussianBlur stdDeviation="0.5"/>
        </filter>
    </defs>
    
    <!-- Background Fill with Core Energy -->
    <rect x="10" y="10" width="44" height="44" rx="8" 
          fill="url(#coreEnergyTT)" opacity="0.3"/>
    
    <!-- Primary Border with Breathing Animation -->
    <rect x="10" y="10" width="44" height="44" rx="8" 
          fill="none"
          stroke="#000000" 
          stroke-width="2.5"
          filter="url(#minBlurTT)">
        <animate attributeName="stroke-width" 
                 values="2.5;3;2.5" 
                 dur="4s" 
                 repeatCount="indefinite"/>
    </rect>
    
    <!-- TikTok Musical Note Glyph with Binary Gradient -->
    <g transform="translate(32, 32) scale(0.6) translate(-24, -24)">
        <path d="M26 12v20c0 3-2.5 5.5-5.5 5.5S15 35 15 32s2.5-5.5 5.5-5.5c.5 0 1 .1 1.5.2V22c-.5-.1-1-.1-1.5-.1-5.5 0-10 4.5-10 10s4.5 10 10 10 10-4.5 10-10V18c2 1.5 4.5 2.5 7 2.5v-4.5c-3.5 0-6.5-2.5-7-6h-4.5z"
              fill="none" 
              stroke="url(#binaryGradTT)" 
              stroke-width="2" 
              stroke-linecap="round"
              stroke-linejoin="round">
            <animate attributeName="opacity" 
                     values="0.8;1;0.8" 
                     dur="4s" 
                     repeatCount="indefinite"/>
        </path>
    </g>
    
    <!-- Orbital Elements: Binary Particles -->
    <circle r="1.5" fill="#ff0a54">
        <animateMotion path="M 32 32 m -26 0 a 26 26 0 1 1 52 0 a 26 26 0 1 1 -52 0" 
                       dur="12s" repeatCount="indefinite"/>
    </circle>
    <circle r="1.5" fill="#0affef">
        <animateMotion path="M 32 32 m -26 0 a 26 26 0 1 0 52 0 a 26 26 0 1 0 -52 0" 
                       dur="12s" repeatCount="indefinite"/>
    </circle>
</svg>