<svg xmlns="http://www.w3.org/2000/svg" width="64" height="64" viewBox="0 0 64 64" class="icon-wrapper">
    <defs>
        <!-- Binary Opposition Gradient System -->
        <linearGradient id="binaryGradYT" x1="0%" y1="0%" x2="100%" y2="100%">
            <stop offset="0%" style="stop-color:#ffffff">
                <animate attributeName="stop-color" 
                         values="#ffffff;#ff0a54;#ffffff" 
                         dur="8s" 
                         repeatCount="indefinite"/>
            </stop>
            <stop offset="100%" style="stop-color:#000000">
                <animate attributeName="stop-color" 
                         values="#000000;#0affef;#000000" 
                         dur="8s" 
                         repeatCount="indefinite"/>
            </stop>
        </linearGradient>
        
        <!-- Core Radial Energy Field -->
        <radialGradient id="coreEnergyYT" cx="50%" cy="50%" r="50%">
            <stop offset="0%" style="stop-color:#ffffff" stop-opacity="1"/>
            <stop offset="50%" style="stop-color:#845ef7" stop-opacity="0.5">
                <animate attributeName="stop-opacity" 
                         values="0.5;1;0.5" 
                         dur="4s" 
                         repeatCount="indefinite"/>
            </stop>
            <stop offset="100%" style="stop-color:#000000" stop-opacity="0.1"/>
        </radialGradient>
        
        <!-- Minimal Blur Filter -->
        <!-- <filter id="minBlurYT">
            <feGaussianBlur stdDeviation="0.5"/>
        </filter> -->
    </defs>

    <!-- Background Fill with Core Energy -->
    <rect x="10" y="10" width="44" height="44" rx="8" 
          fill="url(#coreEnergyYT)" opacity="0.3"/>
    
    <!-- Primary Border with Breathing Animation -->
    <rect x="10" y="10" width="44" height="44" rx="8" 
          fill="none"
          stroke="#000000" 
          stroke-width="2.5">
        <animate attributeName="stroke-width" 
                 values="2.5;3;2.5" 
                 dur="4s" 
                 repeatCount="indefinite"/>
    </rect>
    
    <!-- YouTube Dual-Path Architecture with Binary Gradient -->
    <g transform="translate(32, 32) scale(0.6) translate(-24.5, -24.5)">
        <!-- Container Path -->
        <path d="M39.256,6.5H9.744C4.371,6.5,0,10.885,0,16.274v16.451c0,5.39,4.371,9.774,9.744,9.774h29.512c5.373,0,9.744-4.385,9.744-9.774V16.274C49,10.885,44.629,6.5,39.256,6.5z M47,32.726c0,4.287-3.474,7.774-7.744,7.774H9.744C5.474,40.5,2,37.012,2,32.726V16.274C2,11.988,5.474,8.5,9.744,8.5h29.512c4.27,0,7.744,3.488,7.744,7.774V32.726z"
              fill="none" 
              stroke="url(#binaryGradYT)" 
              stroke-width="2.2"
              stroke-linecap="round"
              stroke-linejoin="round">
            <animate attributeName="opacity" 
                     values="0.8;1;0.8" 
                     dur="4s" 
                     repeatCount="indefinite"/>
        </path>
        <!-- Actuator Triangle Path -->
        <path d="M33.36,24.138l-13.855-8.115c-0.308-0.18-0.691-0.183-1.002-0.005S18,16.527,18,16.886v16.229c0,0.358,0.192,0.69,0.502,0.868c0.154,0.088,0.326,0.132,0.498,0.132c0.175,0,0.349-0.046,0.505-0.137l13.855-8.113c0.306-0.179,0.495-0.508,0.495-0.863S33.667,24.317,33.36,24.138z M20,31.37V18.63l10.876,6.371L20,31.37z"
              fill="none" 
              stroke="url(#binaryGradYT)" 
              stroke-width="2"
              stroke-linecap="round"
              stroke-linejoin="round">
            <animate attributeName="opacity" 
                     values="0.9;1;0.9" 
                     dur="3s" 
                     repeatCount="indefinite"/>
        </path>
    </g>
    
    <!-- Orbital Elements: Binary Particles -->
    <circle r="1.5" fill="#ff0a54">
        <animateMotion path="M 32 32 m -26 0 a 26 26 0 1 1 52 0 a 26 26 0 1 1 -52 0" 
                       dur="12s" repeatCount="indefinite"/>
    </circle>
    <circle r="1.5" fill="#0affef">
        <animateMotion path="M 32 32 m -26 0 a 26 26 0 1 0 52 0 a 26 26 0 1 0 -52 0" 
                       dur="12s" repeatCount="indefinite"/>
    </circle>
</svg>