<svg xmlns="http://www.w3.org/2000/svg" viewBox="0 0 64 64" width="64" height="64">
  <defs>
    <!-- Animated rotating gradient for border -->
    <linearGradient id="borderGrad" x1="0%" y1="0%" x2="100%" y2="100%">
      <stop offset="0%" stop-color="#ff3d7a">
        <animate attributeName="stop-color" 
                 values="#ff3d7a;#16a4ff;#ffbf2d;#ff3d7a" 
                 dur="4s" 
                 repeatCount="indefinite"/>
      </stop>
      <stop offset="33%" stop-color="#16a4ff">
        <animate attributeName="stop-color" 
                 values="#16a4ff;#ffbf2d;#ff3d7a;#16a4ff" 
                 dur="4s" 
                 repeatCount="indefinite"/>
      </stop>
      <stop offset="66%" stop-color="#ffbf2d">
        <animate attributeName="stop-color" 
                 values="#ffbf2d;#ff3d7a;#16a4ff;#ffbf2d" 
                 dur="4s" 
                 repeatCount="indefinite"/>
      </stop>
      <stop offset="100%" stop-color="#ff3d7a">
        <animate attributeName="stop-color" 
                 values="#ff3d7a;#16a4ff;#ffbf2d;#ff3d7a" 
                 dur="4s" 
                 repeatCount="indefinite"/>
      </stop>
      <animateTransform
        attributeName="gradientTransform"
        type="rotate"
        values="0 32 32;360 32 32"
        dur="8s"
        repeatCount="indefinite"/>
    </linearGradient>

    <!-- Static gradient for icon fills -->
    <linearGradient id="iconGrad" x1="0%" y1="0%" x2="100%" y2="100%">
      <stop offset="0%" stop-color="#ff3d7a"/>
      <stop offset="50%" stop-color="#16a4ff"/>
      <stop offset="100%" stop-color="#ffbf2d"/>
    </linearGradient>
    
    <!-- Pulse effect for background -->
    <radialGradient id="pulseGrad">
      <stop offset="0%" stop-color="#16a4ff" stop-opacity="0.3">
        <animate attributeName="stop-opacity" 
                 values="0.3;0.1;0.3" 
                 dur="3s" 
                 repeatCount="indefinite"/>
      </stop>
      <stop offset="100%" stop-color="#ff3d7a" stop-opacity="0">
        <animate attributeName="stop-opacity" 
                 values="0;0.2;0" 
                 dur="3s" 
                 repeatCount="indefinite"/>
      </stop>
    </radialGradient>
    
    <!-- Shimmer overlay -->
    <linearGradient id="shimmer" x1="0%" y1="0%" x2="100%" y2="0%">
      <stop offset="0%" stop-color="#ffffff" stop-opacity="0"/>
      <stop offset="50%" stop-color="#ffffff" stop-opacity="0.3">
        <animate attributeName="stop-opacity" 
                 values="0;0.3;0" 
                 dur="3s" 
                 repeatCount="indefinite"/>
      </stop>
      <stop offset="100%" stop-color="#ffffff" stop-opacity="0"/>
      <animateTransform attributeName="gradientTransform"
                        type="translate"
                        values="-1 0;1 0;-1 0"
                        dur="6s"
                        repeatCount="indefinite"/>
    </linearGradient>
    
    <!-- Glow filter -->
    <filter id="glow">
      <feGaussianBlur stdDeviation="2" result="coloredBlur"/>
      <feMerge>
        <feMergeNode in="coloredBlur"/>
        <feMergeNode in="SourceGraphic"/>
      </feMerge>
    </filter>
  </defs>
  
  <!-- Icon container -->
  <g id="icon">
    <!-- Animated background pulse -->
    <rect x="10" y="10" width="44" height="44" rx="8"
          fill="url(#pulseGrad)"
          opacity="0.5"/>
    
    <!-- Icon background -->
    <rect x="10" y="10" width="44" height="44" rx="8"
          fill="url(#iconGrad)"
          opacity="0.15"/>
    
    <!-- Animated gradient border -->
    <rect x="10" y="10" width="44" height="44" rx="8"
          fill="none"
          stroke="url(#borderGrad)"
          stroke-width="2.5"
          stroke-linecap="round"
          filter="url(#glow)">
      <animate attributeName="stroke-width" 
               values="2.5;3;2.5" 
               dur="2s" 
               repeatCount="indefinite"/>
    </rect>
    
    <!-- YouTube icon scaled up -->
    <g transform="translate(32, 32) scale(0.6) translate(-32, -32)">
      <!-- YouTube container/TV shape -->
      <path d="M30.8,53.06a146.19,146.19,0,0,1-15.94-.83A13,13,0,0,1,3.39,40.62a83.16,83.16,0,0,1,.12-17.28A13.07,13.07,0,0,1,15.23,11.91a160.72,160.72,0,0,1,33.6,0A13.07,13.07,0,0,1,60.6,23.64a82.79,82.79,0,0,1-.07,16.95A12.85,12.85,0,0,1,49,52.24h0C42.42,52.79,36.41,53.06,30.8,53.06Zm1.29-40a164.28,164.28,0,0,0-16.65.85A11.06,11.06,0,0,0,5.5,23.56a81.11,81.11,0,0,0-.12,16.87,11,11,0,0,0,9.69,9.82,175.5,175.5,0,0,0,33.79,0h0a10.85,10.85,0,0,0,9.67-9.87,80.8,80.8,0,0,0,.07-16.54,11.09,11.09,0,0,0-10-9.91A153,153,0,0,0,32.09,13Z"
            fill="url(#iconGrad)"
            opacity="0.9">
        <animate attributeName="opacity" 
                 values="0.9;1;0.9" 
                 dur="4s" 
                 repeatCount="indefinite"/>
      </path>
      
      <!-- Play button -->
      <path d="M26,41.5a1,1,0,0,1-1-1v-17a1,1,0,0,1,1.54-.84l14,9a1,1,0,0,1,0,1.71l-14,8A1,1,0,0,1,26,41.5Zm1-16.17V38.78l11.07-6.33Z"
            fill="url(#iconGrad)"
            opacity="0.9">
        <animate attributeName="opacity" 
                 values="0.9;1;0.9" 
                 dur="4s" 
                 repeatCount="indefinite"/>
      </path>
    </g>
    
    <!-- Shimmer overlay -->
    <rect x="10" y="10" width="44" height="44" rx="8"
          fill="url(#shimmer)"
          pointer-events="none"
          opacity="0.4"/>
  </g>
</svg>